Coordinates
version=1
nRows=4
nColumns=63
inDegrees=yes

Units are S.I. units (second, meters, Newtons, ...)
If the header above contains a line with 'inDegrees', this indicates whether rotational values are in degrees (yes) or radians (no).

endheader
time	pelvis_tilt	pelvis_list	pelvis_rotation	pelvis_tx	pelvis_ty	pelvis_tz	hip_flexion_r	hip_adduction_r	hip_rotation_r	knee_angle_r	knee_angle_r_beta	ankle_angle_r	subtalar_angle_r	mtp_angle_r	hip_flexion_l	hip_adduction_l	hip_rotation_l	knee_angle_l	knee_angle_l_beta	ankle_angle_l	subtalar_angle_l	mtp_angle_l	L5_S1_Flex_Ext	L5_S1_Lat_Bending	L5_S1_axial_rotation	L4_L5_Flex_Ext	L4_L5_Lat_Bending	L4_L5_axial_rotation	L3_L4_Flex_Ext	L3_L4_Lat_Bending	L3_L4_axial_rotation	L2_L3_Flex_Ext	L2_L3_Lat_Bending	L2_L3_axial_rotation	L1_L2_Flex_Ext	L1_L2_Lat_Bending	L1_L2_axial_rotation	L1_T12_Flex_Ext	L1_T12_Lat_Bending	L1_T12_axial_rotation	Abs_r3	Abs_r2	Abs_r1	Abs_t1	Abs_t2	neck_flexion	neck_bending	neck_rotation	arm_flex_r	arm_add_r	arm_rot_r	elbow_flex_r	pro_sup_r	wrist_flex_r	wrist_dev_r	arm_flex_l	arm_add_l	arm_rot_l	elbow_flex_l	pro_sup_l	wrist_flex_l	wrist_dev_l
      0.00000000	      1.40143115	     -3.58362349	    103.72017040	      0.22398858	      0.90789927	      0.61466996	     -1.70425609	      1.48811251	    -12.92494952	      8.97177118	      0.15658695	     29.21860377	     -2.22972935	      0.00000000	     -2.23042712	     -2.43934961	     11.04856708	      1.98438981	      0.03463414	     29.74115905	      2.55135086	      0.00000000	      0.09429583	      0.25752436	     -2.04661851	      0.17511679	      0.34250739	     -2.17453216	      0.15491862	      0.62614472	     -2.17453216	      0.10777071	      0.62614472	     -1.79079119	      0.08756311	      0.52514367	     -1.66287754	      0.05388064	      0.39890523	     -1.53496388	      0.67354570	      2.91316702	    -11.38267815	      0.00000000	      0.00000000	     21.23814254	      4.61219270	     11.06559300	     26.31658515	     -6.58575602	     15.69508097	     93.72119263	     83.08092851	     -8.07384866	      0.64725206	     24.97290288	     -4.25180785	     10.13246351	     88.93576223	     73.76504384	     -8.65328418	     -2.55948374
      0.01666667	      1.26001885	     -3.12181077	    102.59235231	      0.22517137	      0.90746477	      0.61199311	     -2.01630899	      1.42929303	    -11.74017831	      9.53523539	      0.16642125	     29.15813773	     -2.68565470	      0.00000000	     -3.25472152	     -2.40040182	     10.49427255	      1.62961062	      0.02844207	     29.61314813	      1.72523000	      0.00000000	      0.08951089	      0.22350182	     -1.85255109	      0.16623067	      0.29725742	     -1.96833553	      0.14705744	      0.54342232	     -1.96833553	      0.10230199	      0.54342232	     -1.62098220	      0.08311981	      0.45576491	     -1.50519776	      0.05114652	      0.34620431	     -1.38941332	      0.63936733	      2.52829725	    -10.30333340	      0.00000000	      0.00000000	     20.45415117	      5.07706191	      9.88027610	     25.45454683	     -5.20372184	     14.85750967	     91.98599723	     87.12667107	     -9.19715799	     -1.09763979	     23.63393029	     -3.65652883	     10.86676534	     91.48533936	     72.89840075	     -6.86487440	     -0.79755349
      0.03333333	      1.20829860	     -2.86363569	    101.81512984	      0.22596440	      0.90691948	      0.60972469	     -2.13967291	      1.44419141	    -10.65614175	      9.99447422	      0.17443648	     29.11239445	     -3.47786900	      0.00000000	     -3.91053058	     -2.38699514	     10.02777417	      1.46964993	      0.02565023	     29.32379070	      0.88501171	      0.00000000	      0.09608144	      0.20727143	     -1.70512412	      0.17843284	      0.27567101	     -1.81169438	      0.15785220	      0.50395976	     -1.81169438	      0.10981148	      0.50395976	     -1.49198361	      0.08922123	      0.42266791	     -1.38541335	      0.05490094	      0.32106345	     -1.27884309	      0.68630012	      2.34469591	     -9.48338882	      0.00000000	      0.00000000	     20.10550624	      5.52344210	      9.46789544	     24.06896379	     -4.55544107	     14.16422793	     91.83402363	     87.83497432	     -9.49775481	     -1.06214169	     22.29560041	     -3.40281124	     11.89691731	     93.31827813	     72.28259728	     -4.89512834	      0.05921152
      0.05000000	      1.32188304	     -2.50892063	    101.75169194	      0.22578262	      0.90656987	      0.60811122	     -2.37818075	      1.62597091	    -10.64451341	     10.38084170	      0.18117987	     29.25906427	     -3.70460010	      0.00000000	     -4.37766773	     -2.58125705	      9.69181079	      1.62105350	      0.02829272	     29.14879566	      0.59305914	      0.00000000	      0.07013840	      0.22227767	     -1.72392632	      0.13025402	      0.29562929	     -1.83167171	      0.11523038	      0.54044592	     -1.83167171	      0.08016118	      0.54044592	     -1.50843553	      0.06513052	      0.45326861	     -1.40069013	      0.04007708	      0.34430810	     -1.29294474	      0.50099157	      2.51444940	     -9.58796100	      0.00000000	      0.00000000	     20.04382924	      5.59094990	      9.47897253	     22.75829111	     -4.69777657	     14.24544154	     92.29360796	     87.67610272	     -9.42529959	     -0.98341381	     20.94290701	     -3.57640418	     13.11184948	     94.72824852	     72.35495024	     -4.19213487	     -0.04575706
